# Blender v2.76 (sub 0) OBJ File: 'goal.blend'
# www.blender.org
mtllib goal.mtl
o Circle.001_Circle.003
v -0.006861 0.389656 -0.727450
v -0.147441 0.389656 -0.713604
v -0.282618 0.389656 -0.672598
v -0.407199 0.389656 -0.606009
v -0.516394 0.389656 -0.516394
v -0.606009 0.389656 -0.407199
v -0.672598 0.389656 -0.282618
v -0.713604 0.389656 -0.147441
v -0.727450 0.389656 -0.006861
v -0.713604 0.389656 0.133719
v -0.672598 0.389656 0.268896
v -0.606009 0.389656 0.393476
v -0.516394 0.389656 0.502672
v -0.407199 0.389656 0.592286
v -0.282618 0.389656 0.658876
v -0.147441 0.389656 0.699882
v -0.006861 0.389656 0.713727
v 0.133719 0.389656 0.699881
v 0.268897 0.389656 0.658876
v 0.393477 0.389656 0.592286
v 0.502672 0.389656 0.502672
v 0.592287 0.389656 0.393476
v 0.658876 0.389656 0.268896
v 0.699882 0.389656 0.133718
v 0.713727 0.389656 -0.006862
v 0.699881 0.389656 -0.147442
v 0.658876 0.389656 -0.282619
v 0.592286 0.389656 -0.407199
v 0.502671 0.389656 -0.516395
v 0.393476 0.389656 -0.606009
v 0.268895 0.389656 -0.672599
v 0.133718 0.389656 -0.713604
v -0.727450 0.389656 -0.006861
v -0.713604 0.389656 0.133719
v -0.407199 0.389656 0.592286
v -0.282618 0.389656 0.658876
v -0.147441 0.389656 0.699882
v 0.133719 0.389656 0.699881
v 0.393477 0.389656 0.592286
v 0.502672 0.389656 0.502672
v 0.658876 0.389656 0.268896
v 0.699881 0.389656 -0.147442
v 0.658876 0.389656 -0.282619
v -0.006861 0.389656 -0.727450
v -0.147441 0.389656 -0.713604
v -0.282618 0.389656 -0.672598
v -0.407199 0.389656 -0.606009
v -0.516394 0.389656 -0.516394
v -0.606009 0.389656 -0.407199
v -0.672598 0.389656 -0.282618
v -0.713604 0.389656 -0.147441
v -0.727450 0.389656 -0.006861
v -0.713604 0.389656 0.133719
v -0.672598 0.389656 0.268896
v -0.606009 0.389656 0.393476
v -0.516394 0.389656 0.502672
v -0.407199 0.389656 0.592286
v -0.282618 0.389656 0.658876
v -0.147441 0.389656 0.699882
v -0.006861 0.389656 0.713727
v 0.133719 0.389656 0.699881
v 0.268897 0.389656 0.658876
v 0.393477 0.389656 0.592286
v 0.502672 0.389656 0.502672
v 0.592287 0.389656 0.393476
v 0.658876 0.389656 0.268896
v 0.699882 0.389656 0.133718
v 0.713727 0.389656 -0.006862
v 0.699881 0.389656 -0.147442
v 0.658876 0.389656 -0.282619
v 0.592286 0.389656 -0.407199
v 0.502671 0.389656 -0.516395
v 0.393476 0.389656 -0.606009
v 0.268895 0.389656 -0.672599
v 0.133718 0.389656 -0.713604
v -0.006861 0.465920 -0.727450
v -0.147441 0.465920 -0.713604
v -0.282618 0.465920 -0.672598
v -0.407199 0.465920 -0.606009
v -0.516394 0.465920 -0.516394
v -0.606009 0.465920 -0.407199
v -0.672598 0.465920 -0.282618
v -0.713604 0.465920 -0.147441
v -0.727450 0.465920 -0.006861
v -0.713604 0.465920 0.133719
v -0.672598 0.465920 0.268896
v -0.606009 0.465920 0.393476
v -0.516394 0.465920 0.502672
v -0.407199 0.465920 0.592286
v -0.282618 0.465920 0.658876
v -0.147441 0.465920 0.699882
v -0.006861 0.465920 0.713727
v 0.133719 0.465920 0.699881
v 0.268897 0.465920 0.658876
v 0.393477 0.465920 0.592286
v 0.502672 0.465920 0.502672
v 0.592287 0.465920 0.393476
v 0.658876 0.465920 0.268896
v 0.699882 0.465920 0.133718
v 0.713727 0.465920 -0.006862
v 0.699881 0.465920 -0.147442
v 0.658876 0.465920 -0.282619
v 0.592286 0.465920 -0.407199
v 0.502671 0.465920 -0.516395
v 0.393476 0.465920 -0.606009
v 0.268895 0.465920 -0.672599
v 0.133718 0.465920 -0.713604
vn 0.000000 0.000000 1.000000
vn 0.000000 -1.000000 0.000000
vn 0.000000 0.993600 0.112900
vn 0.000000 1.000000 0.000000
vn -0.634400 0.000000 -0.773000
vn 0.956900 0.000000 0.290300
vn -0.773000 0.000000 -0.634400
vn 0.995200 0.000000 0.098000
vn -0.881900 0.000000 -0.471400
vn 0.995200 0.000000 -0.098000
vn -0.956900 0.000000 -0.290300
vn 0.956900 0.000000 -0.290300
vn -0.995200 0.000000 -0.098000
vn 0.881900 0.000000 -0.471400
vn -0.995200 0.000000 0.098000
vn 0.773000 0.000000 -0.634400
vn -0.956900 0.000000 0.290300
vn 0.634400 0.000000 -0.773000
vn -0.881900 0.000000 0.471400
vn 0.471400 0.000000 -0.881900
vn 0.098000 0.000000 0.995200
vn -0.773000 0.000000 0.634400
vn 0.290300 0.000000 -0.956900
vn 0.290300 0.000000 0.956900
vn -0.634400 0.000000 0.773000
vn 0.098000 0.000000 -0.995200
vn 0.471400 0.000000 0.881900
vn -0.471400 0.000000 0.881900
vn -0.098000 0.000000 -0.995200
vn 0.634400 0.000000 0.773000
vn -0.290300 0.000000 0.956900
vn -0.290300 0.000000 -0.956900
vn 0.773000 0.000000 0.634400
vn -0.098000 0.000000 0.995200
vn -0.471400 0.000000 -0.881900
vn 0.881900 0.000000 0.471400
usemtl Material.002
s off
f 10//1 9//1 33//1 34//1
f 35//2 57//2 58//2 59//2 37//2 36//2 15//2 14//2
f 37//1 59//1 60//1 61//1 38//1 18//1 17//1 16//1 15//1 36//1
f 55//3 56//3 57//3 35//3 14//3 13//3 12//3 11//3 10//3 34//3 33//3 9//3 8//3 7//3 6//3 5//3 4//3 3//3 2//3 1//3 32//3 31//3 30//3 29//3 28//3 27//3 43//3 42//3 69//3 70//3 71//3 72//3 73//3 74//3 75//3 44//3 45//3 46//3 47//3 48//3 49//3 50//3 51//3 52//3 53//3 54//3
f 62//4 63//4 39//4 40//4 21//4 20//4 19//4 18//4 38//4 61//4
f 40//4 39//4 63//4 64//4 65//4 66//4 41//4 23//4 22//4 21//4
f 67//2 68//2 69//2 42//2 43//2 27//2 26//2 25//2 24//2 23//2 41//2 66//2
f 64//5 63//5 95//5 96//5
f 51//6 50//6 82//6 83//6
f 65//7 64//7 96//7 97//7
f 52//8 51//8 83//8 84//8
f 66//9 65//9 97//9 98//9
f 53//10 52//10 84//10 85//10
f 67//11 66//11 98//11 99//11
f 54//12 53//12 85//12 86//12
f 68//13 67//13 99//13 100//13
f 55//14 54//14 86//14 87//14
f 69//15 68//15 100//15 101//15
f 56//16 55//16 87//16 88//16
f 70//17 69//17 101//17 102//17
f 57//18 56//18 88//18 89//18
f 71//19 70//19 102//19 103//19
f 58//20 57//20 89//20 90//20
f 45//21 44//21 76//21 77//21
f 72//22 71//22 103//22 104//22
f 59//23 58//23 90//23 91//23
f 46//24 45//24 77//24 78//24
f 73//25 72//25 104//25 105//25
f 60//26 59//26 91//26 92//26
f 47//27 46//27 78//27 79//27
f 74//28 73//28 105//28 106//28
f 61//29 60//29 92//29 93//29
f 48//30 47//30 79//30 80//30
f 75//31 74//31 106//31 107//31
f 62//32 61//32 93//32 94//32
f 49//33 48//33 80//33 81//33
f 44//34 75//34 107//34 76//34
f 63//35 62//35 94//35 95//35
f 50//36 49//36 81//36 82//36
f 105//2 104//2 103//2 102//2 101//2 100//2 99//2 98//2 97//2 96//2 95//2 94//2 93//2 92//2 91//2 89//2 88//2 87//2 86//2 85//2 84//2 83//2 82//2 81//2 80//2 79//2 78//2 77//2 76//2 107//2 106//2
o Circle
v 0.001991 0.307887 -1.005694
v -0.193100 0.307887 -0.986479
v -0.380693 0.307887 -0.929573
v -0.553580 0.307887 -0.837163
v -0.705116 0.307887 -0.712800
v -0.829479 0.307887 -0.561264
v -0.921889 0.307887 -0.388377
v -0.978795 0.307887 -0.200784
v -0.998009 0.307887 -0.005694
v -0.978795 0.307887 0.189397
v -0.921889 0.307887 0.376990
v -0.829479 0.307887 0.549877
v -0.705116 0.307887 0.701413
v -0.553580 0.307887 0.825776
v -0.380693 0.307887 0.918186
v -0.193099 0.307887 0.975092
v 0.001991 0.307887 0.994306
v 0.197081 0.307887 0.975092
v 0.384674 0.307887 0.918186
v 0.557561 0.307887 0.825776
v 0.709098 0.307887 0.701413
v 0.833461 0.307887 0.549876
v 0.925870 0.307887 0.376989
v 0.982776 0.307887 0.189396
v 1.001991 0.307887 -0.005695
v 0.982776 0.307887 -0.200785
v 0.925870 0.307887 -0.388378
v 0.833460 0.307887 -0.561265
v 0.709096 0.307887 -0.712801
v 0.557560 0.307887 -0.837164
v 0.384673 0.307887 -0.929574
v 0.197079 0.307887 -0.986479
v 0.001991 0.389646 -1.005694
v -0.193100 0.389646 -0.986479
v -0.380693 0.389646 -0.929573
v -0.553580 0.389646 -0.837163
v -0.705116 0.389646 -0.712800
v -0.829479 0.389646 -0.561264
v -0.921889 0.389646 -0.388377
v -0.978795 0.389646 -0.200784
v -0.998009 0.389646 -0.005694
v -0.978795 0.389646 0.189397
v -0.921889 0.389646 0.376990
v -0.829479 0.389646 0.549877
v -0.705116 0.389646 0.701413
v -0.553580 0.389646 0.825776
v -0.380693 0.389646 0.918186
v -0.193099 0.389646 0.975092
v 0.001991 0.389646 0.994306
v 0.197081 0.389646 0.975092
v 0.384674 0.389646 0.918186
v 0.557561 0.389646 0.825776
v 0.709098 0.389646 0.701413
v 0.833461 0.389646 0.549876
v 0.925870 0.389646 0.376989
v 0.982776 0.389646 0.189396
v 1.001991 0.389646 -0.005695
v 0.982776 0.389646 -0.200785
v 0.925870 0.389646 -0.388378
v 0.833460 0.389646 -0.561265
v 0.709096 0.389646 -0.712801
v 0.557560 0.389646 -0.837164
v 0.384673 0.389646 -0.929574
v 0.197079 0.389646 -0.986479
vn 0.000000 -1.000000 0.000000
vn 0.000000 1.000000 0.000000
vn 0.956900 0.000000 -0.290300
vn -0.634400 0.000000 0.773000
vn 0.881900 0.000000 -0.471400
vn -0.471400 0.000000 0.881900
vn -0.098000 0.000000 -0.995200
vn 0.773000 0.000000 -0.634400
vn -0.290300 0.000000 0.956900
vn -0.290300 0.000000 -0.956900
vn 0.634400 0.000000 -0.773000
vn -0.098000 0.000000 0.995200
vn -0.471400 0.000000 -0.881900
vn 0.471400 0.000000 -0.881900
vn 0.098000 0.000000 0.995200
vn -0.634400 0.000000 -0.773000
vn 0.290300 0.000000 -0.956900
vn 0.290300 0.000000 0.956900
vn -0.773000 0.000000 -0.634400
vn 0.098000 0.000000 -0.995200
vn 0.471400 0.000000 0.881900
vn -0.881900 0.000000 -0.471400
vn 0.634400 0.000000 0.773000
vn -0.956900 0.000000 -0.290300
vn 0.773000 0.000000 0.634400
vn -0.995200 0.000000 -0.098000
vn 0.881900 0.000000 0.471400
vn -0.995200 0.000000 0.098000
vn 0.956900 0.000000 0.290300
vn -0.956900 0.000000 0.290300
vn 0.995200 0.000000 0.098000
vn -0.881900 0.000000 0.471400
vn 0.995200 0.000000 -0.098000
vn -0.773000 0.000000 0.634400
usemtl Material.001
s off
f 109//37 108//37 139//37 138//37 137//37 136//37 135//37 134//37 133//37 132//37 131//37 130//37 129//37 128//37 127//37 126//37 125//37 124//37 123//37 122//37 121//37 120//37 119//37 118//37 117//37 116//37 115//37 114//37 113//37 112//37 111//37 110//37
f 141//38 142//38 143//38 144//38 145//38 146//38 147//38 148//38 149//38 150//38 151//38 152//38 153//38 154//38 155//38 156//38 157//38 158//38 159//38 160//38 161//38 162//38 163//38 164//38 165//38 166//38 167//38 168//38 169//38 170//38 171//38 140//38
f 133//39 134//39 166//39 165//39
f 120//40 121//40 153//40 152//40
f 134//41 135//41 167//41 166//41
f 121//42 122//42 154//42 153//42
f 108//43 109//43 141//43 140//43
f 135//44 136//44 168//44 167//44
f 122//45 123//45 155//45 154//45
f 109//46 110//46 142//46 141//46
f 136//47 137//47 169//47 168//47
f 123//48 124//48 156//48 155//48
f 110//49 111//49 143//49 142//49
f 137//50 138//50 170//50 169//50
f 124//51 125//51 157//51 156//51
f 111//52 112//52 144//52 143//52
f 138//53 139//53 171//53 170//53
f 125//54 126//54 158//54 157//54
f 112//55 113//55 145//55 144//55
f 139//56 108//56 140//56 171//56
f 126//57 127//57 159//57 158//57
f 113//58 114//58 146//58 145//58
f 127//59 128//59 160//59 159//59
f 114//60 115//60 147//60 146//60
f 128//61 129//61 161//61 160//61
f 115//62 116//62 148//62 147//62
f 129//63 130//63 162//63 161//63
f 116//64 117//64 149//64 148//64
f 130//65 131//65 163//65 162//65
f 117//66 118//66 150//66 149//66
f 131//67 132//67 164//67 163//67
f 118//68 119//68 151//68 150//68
f 132//69 133//69 165//69 164//69
f 119//70 120//70 152//70 151//70
