# Blender v2.76 (sub 0) OBJ File: 'goal.blend'
# www.blender.org
mtllib goal.mtl
o Cube.005_Cube.008
v 0.261681 0.166177 -0.260938
v 0.261681 0.166177 0.260938
v -0.261681 0.166177 0.260938
v -0.261681 0.166177 -0.260939
v 0.261681 0.189074 -0.260938
v 0.261681 0.189074 0.260939
v -0.261681 0.189074 0.260938
v -0.261681 0.189074 -0.260938
v 0.200662 0.172297 -0.200662
v 0.200662 0.172297 0.200662
v -0.200663 0.172297 0.200662
v -0.200662 0.172297 -0.200663
v 0.200663 0.216695 -0.200662
v 0.200662 0.216695 0.200663
v -0.200663 0.216695 0.200662
v -0.200662 0.216695 -0.200662
v 0.394099 0.085992 -0.394099
v 0.394099 0.085992 0.394099
v -0.394100 0.085992 0.394099
v -0.394099 0.085992 -0.394100
v 0.394100 0.173190 -0.394099
v 0.394099 0.173190 0.394100
v -0.394100 0.173190 0.394099
v -0.394099 0.173190 -0.394099
vn 0.000000 -1.000000 0.000000
vn 0.000000 1.000000 0.000000
vn 1.000000 0.000000 0.000000
vn -0.000000 -0.000000 1.000000
vn -1.000000 -0.000000 -0.000000
vn 0.000000 0.000000 -1.000000
usemtl Material
s off
f 9//1 10//1 11//1 12//1
f 13//2 16//2 15//2 14//2
f 9//3 13//3 14//3 10//3
f 10//4 14//4 15//4 11//4
f 11//5 15//5 16//5 12//5
f 13//6 9//6 12//6 16//6
usemtl Material.002
f 17//1 18//1 19//1 20//1
f 21//2 24//2 23//2 22//2
f 17//3 21//3 22//3 18//3
f 18//4 22//4 23//4 19//4
f 19//5 23//5 24//5 20//5
f 21//6 17//6 20//6 24//6
usemtl Material.003
f 1//1 2//1 3//1 4//1
f 5//2 8//2 7//2 6//2
f 1//3 5//3 6//3 2//3
f 2//4 6//4 7//4 3//4
f 3//5 7//5 8//5 4//5
f 5//6 1//6 4//6 8//6
